<svg xmlns="http://www.w3.org/2000/svg" viewBox="0 0 192 192" fill="none">
  <rect width="192" height="192" rx="24" fill="#3b82f6"/>
  <path d="M96 48c-26.51 0-48 21.49-48 48s21.49 48 48 48 48-21.49 48-48-21.49-48-48-48zm0 72c-13.255 0-24-10.745-24-24s10.745-24 24-24 24 10.745 24 24-10.745 24-24 24z" fill="white"/>
  <path d="M96 84c-6.627 0-12 5.373-12 12s5.373 12 12 12 12-5.373 12-12-5.373-12-12-12z" fill="#3b82f6"/>
  <rect x="88" y="60" width="16" height="8" rx="4" fill="white"/>
  <rect x="88" y="124" width="16" height="8" rx="4" fill="white"/>
  <rect x="60" y="88" width="8" height="16" rx="4" fill="white"/>
  <rect x="124" y="88" width="8" height="16" rx="4" fill="white"/>
</svg>
